<svg width="49" height="44" viewBox="0 0 49 44" fill="none" xmlns="http://www.w3.org/2000/svg">
<path d="M49 20.4167C49 18.4065 47.8984 16.6702 46.2778 15.7276V2.72307C46.2778 1.97872 45.684 0 43.5556 0C42.9499 0 42.3484 0.202465 41.8559 0.597188L34.6224 6.38446C30.9891 9.28873 26.4277 10.8889 21.7778 10.8889H5.44444C2.43724 10.8889 0 13.3261 0 16.3333V24.5C0 27.5072 2.43724 29.9444 5.44444 29.9444H8.31129C8.19304 30.836 8.12583 31.7428 8.12583 32.6667C8.12583 36.0499 8.91358 39.2468 10.3002 42.1043C10.7417 43.0137 11.7056 43.5556 12.7162 43.5556H19.0351C21.2512 43.5556 22.5817 41.0171 21.2384 39.2544C19.8433 37.4238 19.0139 35.1405 19.0139 32.6667C19.0139 31.7215 19.1517 30.813 19.389 29.9444H21.7778C26.4277 29.9444 30.9891 31.5446 34.6216 34.4489L41.855 40.2361C42.3375 40.6222 42.9368 40.8328 43.5547 40.8333C45.6746 40.8333 46.2769 38.8955 46.2769 38.1111V25.1065C47.8984 24.1631 49 22.4269 49 20.4167ZM40.8333 32.4472L38.0218 30.198C33.428 26.523 27.6578 24.5 21.7778 24.5V16.3333C27.6578 16.3333 33.428 14.3104 38.0218 10.6354L40.8333 8.38615V32.4472Z" fill="white"/>
</svg>
